# xmcd
#
# Track frame offsets:
#	150
#	21606
#	40066
#	49913
#	62518
#	86542
#	113475
#	123313
#	148249
#	160091
#	174489
#	209854
#	234831
#	258258
#	271835
#	293846
#	318018
#	340348
#
# Disc length: 4698 seconds
#
# Revision: 0
# Processed by: cddbd v1.5.2PL0 Copyright (c) Steve Scherf et al.
# Submitted via: EasyCDDAExtractor 16.1.0.1
#
DISCID=01125812
DTITLE=Adriano Celentano - Grand Collections
DYEAR=2001
DGENRE=Pop
TTITLE0=Susanna
TTITLE1=Soli
TTITLE2=Stai Lontana Da Me
TTITLE3=I Want To Know (part1)
TTITLE4=I Want To Know (part2)
TTITLE5=Il Problema Piu Importante
TTITLE6=Ja Tebia Liubliu
TTITLE7=L'ascensore
TTITLE8=Michelle
TTITLE9=Mistero
TTITLE10=Preghero
TTITLE11=Quel Punto
TTITLE12=Amore No
TTITLE13=La Coppia Piu Bella Del Mondo
TTITLE14=Storia D'amore
TTITLE15=Uh...Uh
TTITLE16=Un Po Artista Un Po No
TTITLE17=Vivro Per Lei
EXTD=
EXTT0=
EXTT1=
EXTT2=
EXTT3=
EXTT4=
EXTT5=
EXTT6=
EXTT7=
EXTT8=
EXTT9=
EXTT10=
EXTT11=
EXTT12=
EXTT13=
EXTT14=
EXTT15=
EXTT16=
EXTT17=
PLAYORDER=
